<?xml version="1.0" encoding="utf-8"?>
<!-- Generator: Adobe Illustrator 17.1.0, SVG Export Plug-In . SVG Version: 6.00 Build 0)  -->
<!DOCTYPE svg PUBLIC "-//W3C//DTD SVG 1.1//EN" "http://www.w3.org/Graphics/SVG/1.1/DTD/svg11.dtd">
<svg version="1.1" id="Layer_1" xmlns="http://www.w3.org/2000/svg" xmlns:xlink="http://www.w3.org/1999/xlink" x="0px" y="0px"
	 viewBox="115.3 31 561.1 561.1" enable-background="new 115.3 31 561.1 561.1" xml:space="preserve">
<path fill="#020202" d="M395.9,31c-154.8,0-280.5,125.5-280.5,280.5s125.5,280.5,280.5,280.5s280.5-125.5,280.5-280.5
	S550.9,31,395.9,31z M470.1,310.1h-48.7c0,77.7,0,173.3,0,173.3h-72c0,0,0-94.7,0-173.3h-34.1V249h34.1v-39.5
	c0-28.5,13.4-72.6,72.6-72.6l53.2,0.3v59.2c0,0-32.4,0-38.7,0s-15.4,3.1-15.4,16.5V249h54.9L470.1,310.1z"/>
</svg>
