<?xml version="1.0" encoding="utf-8"?>
<!-- Generator: Adobe Illustrator 18.1.0, SVG Export Plug-In . SVG Version: 6.00 Build 0)  -->
<!DOCTYPE svg PUBLIC "-//W3C//DTD SVG 1.1//EN" "http://www.w3.org/Graphics/SVG/1.1/DTD/svg11.dtd">
<svg version="1.1" id="Layer_1" xmlns="http://www.w3.org/2000/svg" xmlns:xlink="http://www.w3.org/1999/xlink" x="0px" y="0px"
	 viewBox="160.4 539.4 1114.6 768.3" enable-background="new 160.4 539.4 1114.6 768.3" xml:space="preserve">
<path fill="#020202" d="M902,923.5H794c0,172.3,0,384.3,0,384.3H634.4c0,0,0-210,0-384.3h-75.6V788h75.6v-87.6
	c0-63.2,29.7-161,161-161l118,0.7v131.3c0,0-71.8,0-85.8,0c-14,0-34.1,6.9-34.1,36.6v80h121.7L902,923.5z M1196.8,867v250.7
	c0,20.6-17.2,37.9-37.9,37.9l0,0c-20.7,0-37.9-17.2-37.9-37.9V867c0-20.6,17.2-37.9,37.9-37.9l0,0
	C1179.5,830,1196.8,846.3,1196.8,867z M1117.5,796.3v376.6c0,20.7-17.2,37.9-37.9,37.9h-29.2c-20.7,0-37.9-17.2-37.9-37.9V796.3
	c0-20.6,17.2-37.9,37.9-37.9h29.2C1100.1,758.3,1117.5,775.7,1117.5,796.3z M1275,945.4v94.8c0,20.6-17.2,37.9-37.9,37.9l0,0
	c-20.6,0-37.9-17.2-37.9-37.9v-94.8c0-20.6,17.2-37.9,37.9-37.9l0,0C1258.9,908.4,1275,924.8,1275,945.4z M243.2,871.4v250.7
	c0,20.7,17.2,37.9,37.9,37.9h3.6c20.6,0,37.9-17.2,37.9-37.9V871.4c0-20.6-17.2-37.9-37.9-37.9h-3.6
	C260.4,834.5,243.2,850.8,243.2,871.4z M326.7,800.8v376.6c0,20.6,17.2,37.9,37.9,37.9h34.6c20.6,0,37.9-17.2,37.9-37.9V800.8
	c0-20.6-17.2-37.9-37.9-37.9h-34.6C343.9,762.8,326.7,780.1,326.7,800.8z M160.4,949.8v94.8c0,20.7,17.2,37.9,37.9,37.9h3.6
	c20.6,0,37.9-17.2,37.9-37.9v-94.8c0-20.6-17.2-37.9-37.9-37.9h-3.6C177.5,912.8,160.4,929.3,160.4,949.8z"/>
</svg>
