<?xml version="1.0" encoding="utf-8"?>
<!-- Generator: Adobe Illustrator 17.1.0, SVG Export Plug-In . SVG Version: 6.00 Build 0)  -->
<!DOCTYPE svg PUBLIC "-//W3C//DTD SVG 1.1//EN" "http://www.w3.org/Graphics/SVG/1.1/DTD/svg11.dtd">
<svg version="1.1" id="Layer_1" xmlns="http://www.w3.org/2000/svg" xmlns:xlink="http://www.w3.org/1999/xlink" x="0px" y="0px"
	 viewBox="0 0 197.2 197.2" enable-background="new 0 0 197.2 197.2" xml:space="preserve">
<g>
	<path fill="#020202" d="M80.2,91.3c2.5,0,4.6-1,6.3-2.9c2.6-2.9,3.7-7.8,3-12.9c-1.2-9.2-7.7-16.8-14.6-17h-0.3
		c-2.4,0-4.6,1-6.2,2.9c-2.6,2.9-3.6,7.5-2.9,12.6c1.2,9.1,7.9,17,14.6,17.2H80.2z"/>
	<path fill="#020202" d="M87.7,118.9c-0.7-0.5-1.4-0.9-2.1-1.4c-2.1-0.6-4.3-1-6.6-1h-0.3c-10.5,0-19.7,6.4-19.7,13.6
		c0,7.9,7.9,14.1,18,14.1c13.3,0,20-4.6,20-13.6c0-0.9-0.1-1.7-0.3-2.6C95.8,124.4,92.6,122.2,87.7,118.9z"/>
	<path fill="#020202" d="M98.6,0C44.1,0,0,44.1,0,98.6s44.1,98.6,98.6,98.6c54.4,0,98.6-44.1,98.6-98.6S153,0,98.6,0z M89.6,152.2
		c-3.9,1.1-8.2,1.7-12.6,1.7c-5,0-9.7-0.6-14.2-1.7c-8.6-2.2-15-6.3-17.9-11.6c-1.3-2.3-1.9-4.7-1.9-7.3c0-2.6,0.6-5.3,1.9-7.9
		c4.7-10,17.1-16.8,30.9-16.8c0.1,0,0.3,0,0.4,0c-1.1-2-1.7-4-1.7-6.2c0-1.1,0.1-2.2,0.4-3.3C60.4,99,49.6,88.4,49.6,74.4
		c0-9.9,7.9-19.4,19.1-23.3c3.4-1.2,6.8-1.8,10.2-1.8h30.9c1.1,0,2,0.7,2.3,1.7c0.3,1,0,2.1-0.9,2.7l-6.9,5
		c-0.4,0.3-0.9,0.5-1.4,0.5h-2.5c3.2,3.8,5.1,9.3,5.1,15.4c0,6.8-3.4,13.2-9.6,18c-4.8,3.7-5,4.8-5,6.9c0.1,1.2,3.4,5,7.1,7.6
		c8.6,6.1,11.8,12.1,11.8,22.1C109.8,139.7,101.9,148.7,89.6,152.2z M159.4,99.3c0,1.3-1.1,2.4-2.4,2.4h-17.5v17.6
		c0,1.3-1.1,2.4-2.4,2.4h-5c-1.3,0-2.4-1.1-2.4-2.4v-17.6H112c-1.3,0-2.4-1.1-2.4-2.4v-5c0-1.3,1.1-2.4,2.4-2.4h17.6V74.3
		c0-1.3,1.1-2.4,2.4-2.4h5c1.3,0,2.4,1.1,2.4,2.4v17.5h17.5c1.3,0,2.4,1.1,2.4,2.4L159.4,99.3L159.4,99.3z"/>
</g>
</svg>
