<?xml version="1.0" encoding="utf-8"?>
<!-- Generator: Adobe Illustrator 18.1.0, SVG Export Plug-In . SVG Version: 6.00 Build 0)  -->
<!DOCTYPE svg PUBLIC "-//W3C//DTD SVG 1.1//EN" "http://www.w3.org/Graphics/SVG/1.1/DTD/svg11.dtd">
<svg version="1.1" id="Layer_1" xmlns="http://www.w3.org/2000/svg" xmlns:xlink="http://www.w3.org/1999/xlink" x="0px" y="0px"
	 viewBox="101.8 584.6 1437.8 659.9" enable-background="new 101.8 584.6 1437.8 659.9" xml:space="preserve">
<path fill="#020202" d="M762.5,1233.8c-24.6,6.9-51.7,10.7-79.5,10.7c-31.5,0-61.2-3.8-89.6-10.7c-54.3-13.9-94.6-39.7-112.9-73.2
	c-8.2-14.5-12-29.7-12-46.1s3.8-33.4,12-49.8c29.7-63.1,107.9-106,195-106c0.6,0,1.9,0,2.5,0c-6.9-12.6-10.7-25.2-10.7-39.1
	c0-6.9,0.6-13.9,2.5-20.8c-91.5-0.6-159.6-67.5-159.6-155.8c0-62.5,49.8-122.4,120.5-147c21.5-7.6,42.9-11.4,64.4-11.4h195
	c6.9,0,12.6,4.4,14.5,10.7s0,13.2-5.7,17l-43.5,31.5c-2.5,1.9-5.7,3.2-8.8,3.2h-15.8c20.2,24,32.2,58.7,32.2,97.2
	c0,42.9-21.5,83.3-60.6,113.6c-30.3,23.3-31.5,30.3-31.5,43.5c0.6,7.6,21.5,31.5,44.8,47.9c54.3,38.5,74.4,76.3,74.4,139.4
	C889.9,1155,840.1,1211.8,762.5,1233.8z M1202.8,900.1c0,8.2-6.9,15.1-15.1,15.1h-110.4v111c0,8.2-6.9,15.1-15.1,15.1h-31.5
	c-8.2,0-15.1-6.9-15.1-15.1v-111H903.8c-8.2,0-15.1-6.9-15.1-15.1v-31.5c0-8.2,6.9-15.1,15.1-15.1h111v-111
	c0-8.2,6.9-15.1,15.1-15.1h31.5c8.2,0,15.1,6.9,15.1,15.1v110.4h110.4c8.2,0,15.1,6.9,15.1,15.1L1202.8,900.1L1202.8,900.1z
	 M703.1,849.6c15.8,0,29-6.3,39.7-18.3c16.4-18.3,23.3-49.2,18.9-81.4c-7.6-58-48.6-106-92.1-107.3h-1.9c-15.1,0-29,6.3-39.1,18.3
	c-16.4,18.3-22.7,47.3-18.3,79.5c7.6,57.4,49.8,107.3,92.1,108.5h0.6V849.6z M750.5,1023.8c-4.4-3.2-8.8-5.7-13.2-8.8
	c-13.2-3.8-27.1-6.3-41.6-6.3h-1.9c-66.2,0-124.3,40.4-124.3,85.8c0,49.8,49.8,89,113.6,89c83.9,0,126.2-29,126.2-85.8
	c0-5.7-0.6-10.7-1.9-16.4C801.6,1058.5,781.4,1044.6,750.5,1023.8z"/>
<g>
	<path fill="#050505" d="M1461.4,802.1v250.7c0,20.7-17.2,37.9-37.9,37.9l0,0c-20.6,0-37.9-17.2-37.9-37.9V802.1
		c0-20.6,17.2-37.9,37.9-37.9l0,0C1444.2,765.1,1461.4,781.4,1461.4,802.1z"/>
	<path fill="#050505" d="M1382.1,731.5V1108c0,20.7-17.2,37.9-37.9,37.9H1315c-20.6,0-37.9-17.2-37.9-37.9V731.5
		c0-20.6,17.2-37.9,37.9-37.9h29.2C1364.7,693.4,1382.1,710.8,1382.1,731.5z"/>
	<path fill="#050505" d="M1539.7,880.5v94.8c0,20.6-17.2,37.9-37.9,37.9l0,0c-20.7,0-37.9-17.2-37.9-37.9v-94.8
		c0-20.6,17.2-37.9,37.9-37.9l0,0C1523.5,843.5,1539.7,860,1539.7,880.5z"/>
</g>
<g>
	<path fill="#050505" d="M184.6,806.5v250.7c0,20.7,17.2,37.9,37.9,37.9h3.6c20.6,0,37.9-17.2,37.9-37.9V806.5
		c0-20.6-17.2-37.9-37.9-37.9h-3.6C201.8,769.6,184.6,785.9,184.6,806.5z"/>
	<path fill="#050505" d="M268.1,735.9v376.6c0,20.6,17.2,37.9,37.9,37.9h34.6c20.6,0,37.9-17.2,37.9-37.9V735.9
		c0-20.6-17.2-37.9-37.9-37.9H306C285.3,697.9,268.1,715.3,268.1,735.9z"/>
	<path fill="#050505" d="M101.8,884.9v94.8c0,20.6,17.2,37.9,37.9,37.9h3.6c20.6,0,37.9-17.2,37.9-37.9v-94.8
		c0-20.6-17.2-37.9-37.9-37.9h-3.6C118.9,848,101.8,864.4,101.8,884.9z"/>
</g>
</svg>
