<?xml version="1.0" encoding="utf-8"?>
<!-- Generator: Adobe Illustrator 18.1.0, SVG Export Plug-In . SVG Version: 6.00 Build 0)  -->
<!DOCTYPE svg PUBLIC "-//W3C//DTD SVG 1.1//EN" "http://www.w3.org/Graphics/SVG/1.1/DTD/svg11.dtd">
<svg version="1.1" id="Layer_1" xmlns="http://www.w3.org/2000/svg" xmlns:xlink="http://www.w3.org/1999/xlink" x="0px" y="0px"
	 viewBox="135.4 503.1 228.6 86.6" enable-background="new 135.4 503.1 228.6 86.6" xml:space="preserve">
<line fill="none" stroke="#050505" stroke-width="12" stroke-miterlimit="10" x1="152.3" y1="542.2" x2="346.4" y2="542.7"/>
<text transform="matrix(1 0 0 1 191.258 529.2069)" font-family="'Helvetica-Light'" font-size="30.3626">FITNESS</text>
<text transform="matrix(1 0 0 1 192.4679 578.9862)" font-family="'Helvetica-Light'" font-size="30.3626">LEDGER</text>
<path fill="#050505" d="M350.2,523.7v44.1c0,3.6-3,6.7-6.7,6.7l0,0c-3.6,0-6.7-3-6.7-6.7v-44.1c0-3.6,3-6.7,6.7-6.7l0,0
	C347.2,517.2,350.2,520,350.2,523.7z"/>
<path fill="#050505" d="M336.2,511.2v66.3c0,3.6-3,6.7-6.7,6.7h-5.1c-3.6,0-6.7-3-6.7-6.7v-66.3c0-3.6,3-6.7,6.7-6.7h5.1
	C333.2,504.6,336.2,507.6,336.2,511.2z"/>
<path fill="#050505" d="M364,537.5v16.7c0,3.6-3,6.7-6.7,6.7l0,0c-3.6,0-6.7-3-6.7-6.7v-16.7c0-3.6,3-6.7,6.7-6.7l0,0
	C361.1,531,364,533.9,364,537.5z"/>
<path fill="#050505" d="M149.9,523.7v44.1c0,3.6,3,6.7,6.7,6.7h0.6c3.6,0,6.7-3,6.7-6.7v-44.1c0-3.6-3-6.7-6.7-6.7h-0.6
	C152.9,517.2,149.9,520,149.9,523.7z"/>
<path fill="#050505" d="M164.6,511.2v66.3c0,3.6,3,6.7,6.7,6.7h6.1c3.6,0,6.7-3,6.7-6.7v-66.3c0-3.6-3-6.7-6.7-6.7h-6.1
	C167.6,504.6,164.6,507.6,164.6,511.2z"/>
<path fill="#050505" d="M135.4,537.5v16.7c0,3.6,3,6.7,6.7,6.7h0.6c3.6,0,6.7-3,6.7-6.7v-16.7c0-3.6-3-6.7-6.7-6.7H142
	C138.4,531,135.4,533.9,135.4,537.5z"/>
</svg>
