<?xml version="1.0" encoding="utf-8"?>
<!-- Generator: Adobe Illustrator 18.1.0, SVG Export Plug-In . SVG Version: 6.00 Build 0)  -->
<!DOCTYPE svg PUBLIC "-//W3C//DTD SVG 1.1//EN" "http://www.w3.org/Graphics/SVG/1.1/DTD/svg11.dtd">
<svg version="1.1" id="Layer_1" xmlns="http://www.w3.org/2000/svg" xmlns:xlink="http://www.w3.org/1999/xlink" x="0px" y="0px"
	 viewBox="0 386.4 619 231.9" enable-background="new 0 386.4 619 231.9" xml:space="preserve">
<line fill="none" stroke="#050505" stroke-width="12" stroke-miterlimit="10" x1="45.2" y1="491" x2="564.9" y2="492.4"/>
<text transform="matrix(1 0 0 1 149.5401 456.259)" font-family="'Helvetica-Light'" font-size="81.2857">FITNESS</text>
<text transform="matrix(1 0 0 1 152.7793 589.5268)" font-family="'Helvetica-Light'" font-size="81.2857">LEDGER</text>
<path fill="#050505" d="M582.1,441.5v118.1c0,9.6-8,17.9-17.9,17.9l0,0c-9.6,0-17.9-8-17.9-17.9V441.5c0-9.6,8-17.9,17.9-17.9l0,0
	C574,424.1,582.1,431.6,582.1,441.5z"/>
<path fill="#050505" d="M544.6,408.1v177.5c0,9.6-8,17.9-17.9,17.9H513c-9.6,0-17.9-8-17.9-17.9V408.1c0-9.6,8-17.9,17.9-17.9h13.7
	C536.5,390.4,544.6,398.4,544.6,408.1z"/>
<path fill="#050505" d="M619,478.5v44.7c0,9.6-8,17.9-17.9,17.9l0,0c-9.6,0-17.9-8-17.9-17.9v-44.7c0-9.6,8-17.9,17.9-17.9l0,0
	C611.2,461.1,619,468.8,619,478.5z"/>
<path fill="#050505" d="M38.8,441.5v118.1c0,9.6,8,17.9,17.9,17.9h1.6c9.6,0,17.9-8,17.9-17.9V441.5c0-9.6-8-17.9-17.9-17.9h-1.6
	C46.9,424.1,38.8,431.6,38.8,441.5z"/>
<path fill="#050505" d="M78.2,408.1v177.5c0,9.6,8,17.9,17.9,17.9h16.3c9.6,0,17.9-8,17.9-17.9V408.1c0-9.6-8-17.9-17.9-17.9H96.1
	C86.2,390.4,78.2,398.4,78.2,408.1z"/>
<path fill="#050505" d="M0,478.5v44.7c0,9.6,8,17.9,17.9,17.9h1.6c9.6,0,17.9-8,17.9-17.9v-44.7c0-9.6-8-17.9-17.9-17.9h-1.9
	C8,461.1,0,468.8,0,478.5z"/>
</svg>
