<?xml version="1.0" encoding="utf-8"?>
<!-- Generator: Adobe Illustrator 18.1.0, SVG Export Plug-In . SVG Version: 6.00 Build 0)  -->
<!DOCTYPE svg PUBLIC "-//W3C//DTD SVG 1.1//EN" "http://www.w3.org/Graphics/SVG/1.1/DTD/svg11.dtd">
<svg version="1.1" id="Layer_1" xmlns="http://www.w3.org/2000/svg" xmlns:xlink="http://www.w3.org/1999/xlink" x="0px" y="0px"
	 viewBox="10.3 399.2 792 343.9" enable-background="new 10.3 399.2 792 343.9" xml:space="preserve">
<line fill="none" stroke="#050505" stroke-width="20" stroke-miterlimit="10" x1="158.9" y1="582.7" x2="661.6" y2="584.1"/>
<text transform="matrix(1 0 0 1 259.858 549.0558)" font-family="'Helvetica-Light'" font-size="78.6211">FITNESS</text>
<text transform="matrix(1 0 0 1 262.9903 677.9503)" font-family="'Helvetica-Light'" font-size="78.6211">LEDGER</text>
<path fill="#050505" d="M742.8,481.8v190.6c0,15.7-13.1,28.8-28.8,28.8l0,0c-15.7,0-28.8-13.1-28.8-28.8V481.8
	c0-15.7,13.1-28.8,28.8-28.8l0,0C729.7,453.7,742.8,466.1,742.8,481.8z"/>
<path fill="#050505" d="M682.5,428.1v286.3c0,15.7-13.1,28.8-28.8,28.8h-22.2c-15.7,0-28.8-13.1-28.8-28.8V428.1
	c0-15.7,13.1-28.8,28.8-28.8h22.2C669.3,399.2,682.5,412.4,682.5,428.1z"/>
<path fill="#050505" d="M802.3,541.4v72.1c0,15.7-13.1,28.8-28.8,28.8l0,0c-15.7,0-28.8-13.1-28.8-28.8v-72.1
	c0-15.7,13.1-28.8,28.8-28.8l0,0C790,513.3,802.3,525.8,802.3,541.4z"/>
<path fill="#050505" d="M73.2,481.8v190.6c0,15.7,13.1,28.8,28.8,28.8h2.7c15.7,0,28.8-13.1,28.8-28.8V481.8
	c0-15.7-13.1-28.8-28.8-28.8H102C86.3,453.7,73.2,466.1,73.2,481.8z"/>
<path fill="#050505" d="M136.7,428.1v286.3c0,15.7,13.1,28.8,28.8,28.8h26.3c15.7,0,28.8-13.1,28.8-28.8V428.1
	c0-15.7-13.1-28.8-28.8-28.8h-26.3C149.8,399.2,136.7,412.4,136.7,428.1z"/>
<path fill="#050505" d="M10.3,541.4v72.1c0,15.7,13.1,28.8,28.8,28.8h2.7c15.7,0,28.8-13.1,28.8-28.8v-72.1
	c0-15.7-13.1-28.8-28.8-28.8h-2.7C23.3,513.3,10.3,525.8,10.3,541.4z"/>
</svg>
