<?xml version="1.0" encoding="utf-8"?>
<!-- Generator: Adobe Illustrator 17.1.0, SVG Export Plug-In . SVG Version: 6.00 Build 0)  -->
<!DOCTYPE svg PUBLIC "-//W3C//DTD SVG 1.1//EN" "http://www.w3.org/Graphics/SVG/1.1/DTD/svg11.dtd">
<svg version="1.1" id="Layer_1" xmlns="http://www.w3.org/2000/svg" xmlns:xlink="http://www.w3.org/1999/xlink" x="0px" y="0px"
	 viewBox="87.3 16.4 579.1 579.1" enable-background="new 87.3 16.4 579.1 579.1" xml:space="preserve">
<path fill="#010101" d="M376.8,16.4c-160,0-289.6,129.8-289.6,289.6c0,160,129.5,289.6,289.6,289.6S666.4,466,666.4,306
	C666.4,146.2,536.6,16.4,376.8,16.4z M522.5,247.9c0.3,3.2,0.3,6.2,0.3,9.4c0,96.3-73.4,207.6-207.6,207.6
	c-41.1,0-79.6-12-111.9-32.9c5.6,0.6,11.5,0.9,17.3,0.9c34.1,0,65.8-11.7,90.7-31.1c-32-0.6-58.7-21.7-68.1-50.8
	c4.4,0.9,9.1,1.2,13.8,1.2c6.8,0,13.2-0.9,19.1-2.6c-33.5-6.8-58.4-36.1-58.4-71.7c0-0.3,0-0.6,0-0.9c9.7,5.6,21.1,8.8,33.2,9.1
	c-19.7-13.2-32.6-35.5-32.6-60.8c0-13.5,3.5-25.8,10-36.7c36.1,44,89.9,73.1,150.4,76.4c-1.2-5.3-1.8-10.9-1.8-16.7
	c0-40.2,32.6-72.8,72.8-72.8c20.9,0,39.9,8.8,53.2,22.9c16.7-3.2,32.3-9.4,46.4-17.6c-5.6,17-17,31.4-32,40.2
	c14.7-1.8,28.8-5.6,42-11.5C549.2,224.7,536.9,237.6,522.5,247.9z"/>
</svg>
