<?xml version="1.0" encoding="utf-8"?>
<!-- Generator: Adobe Illustrator 18.1.0, SVG Export Plug-In . SVG Version: 6.00 Build 0)  -->
<!DOCTYPE svg PUBLIC "-//W3C//DTD SVG 1.1//EN" "http://www.w3.org/Graphics/SVG/1.1/DTD/svg11.dtd">
<svg version="1.1" id="Layer_1" xmlns="http://www.w3.org/2000/svg" xmlns:xlink="http://www.w3.org/1999/xlink" x="0px" y="0px"
	 viewBox="0 0 1244.2 1791.4" enable-background="new 0 0 1244.2 1791.4" xml:space="preserve">
<path fill="#010101" d="M709.3,290C365.5,290,87.1,568.9,87.1,912.2c0,343.8,278.2,622.2,622.2,622.2s622.2-278.4,622.2-622.2
	C1331.5,568.9,1052.6,290,709.3,290z M1022.3,787.4c0.6,6.9,0.6,13.3,0.6,20.2c0,206.9-157.7,446-446,446
	c-88.3,0-171-25.8-240.4-70.7c12,1.3,24.7,1.9,37.2,1.9c73.3,0,141.4-25.1,194.9-66.8c-68.8-1.3-126.1-46.6-146.3-109.1
	c9.5,1.9,19.6,2.6,29.6,2.6c14.6,0,28.4-1.9,41-5.6c-72-14.6-125.5-77.6-125.5-154c0-0.6,0-1.3,0-1.9c20.8,12,45.3,18.9,71.3,19.6
	c-42.3-28.4-70-76.3-70-130.6c0-29,7.5-55.4,21.5-78.8c77.6,94.5,193.1,157.1,323.1,164.1c-2.6-11.4-3.9-23.4-3.9-35.9
	c0-86.4,70-156.4,156.4-156.4c44.9,0,85.7,18.9,114.3,49.2c35.9-6.9,69.4-20.2,99.7-37.8c-12,36.5-36.5,67.5-68.8,86.4
	c31.6-3.9,61.9-12,90.2-24.7C1079.7,737.5,1053.2,765.2,1022.3,787.4z"/>
</svg>
