<?xml version="1.0" encoding="utf-8"?>
<!-- Generator: Adobe Illustrator 18.1.0, SVG Export Plug-In . SVG Version: 6.00 Build 0)  -->
<!DOCTYPE svg PUBLIC "-//W3C//DTD SVG 1.1//EN" "http://www.w3.org/Graphics/SVG/1.1/DTD/svg11.dtd">
<svg version="1.1" id="Layer_1" xmlns="http://www.w3.org/2000/svg" xmlns:xlink="http://www.w3.org/1999/xlink" x="0px" y="0px"
	 viewBox="0 0 612 792" enable-background="new 0 0 612 792" xml:space="preserve">
<path fill="#020202" d="M446.3,390.1h-50c0,79.9,0,178.2,0,178.2h-74c0,0,0-97.4,0-178.2h-35.1v-62.8h35.1v-40.6
	c0-29.3,13.8-74.6,74.6-74.6l54.7,0.3v60.8c0,0-33.3,0-39.8,0s-15.8,3.2-15.8,17v37.1h56.4L446.3,390.1z"/>
<path fill="#010101" d="M612.2,352.2v138.3c0,11.4-9.5,20.9-20.9,20.9l0,0c-11.4,0-20.9-9.5-20.9-20.9V352.2
	c0-11.4,9.5-20.9,20.9-20.9l0,0C602.7,331.8,612.2,340.8,612.2,352.2z"/>
<path fill="#010101" d="M568.5,313.2v207.9c0,11.4-9.5,20.9-20.9,20.9h-16.1c-11.4,0-20.9-9.5-20.9-20.9V313.2
	c0-11.4,9.5-20.9,20.9-20.9h16.1C558.9,292.3,568.5,301.8,568.5,313.2z"/>
<path fill="#010101" d="M655.5,395.5v52.3c0,11.4-9.5,20.9-20.9,20.9l0,0c-11.4,0-20.9-9.5-20.9-20.9v-52.3
	c0-11.4,9.5-20.9,20.9-20.9l0,0C646.5,375.1,655.5,384.1,655.5,395.5z"/>
<path fill="#010101" d="M112.3,350.4v138.3c0,11.4,9.5,20.9,20.9,20.9h2c11.4,0,20.9-9.5,20.9-20.9V350.4c0-11.4-9.5-20.9-20.9-20.9
	h-2C121.8,329.9,112.3,339,112.3,350.4z"/>
<path fill="#010101" d="M158.4,311.3v207.9c0,11.4,9.5,20.9,20.9,20.9h19.1c11.4,0,20.9-9.5,20.9-20.9V311.3
	c0-11.4-9.5-20.9-20.9-20.9h-19.1C167.9,290.3,158.4,300,158.4,311.3z"/>
<path fill="#010101" d="M66.7,393.6v52.3c0,11.4,9.5,20.9,20.9,20.9h2c11.4,0,20.9-9.5,20.9-20.9v-52.3c0-11.4-9.5-20.9-20.9-20.9
	h-2C76.1,373.2,66.7,382.3,66.7,393.6z"/>
</svg>
