<?xml version="1.0" encoding="utf-8"?>
<!-- Generator: Adobe Illustrator 18.1.0, SVG Export Plug-In . SVG Version: 6.00 Build 0)  -->
<!DOCTYPE svg PUBLIC "-//W3C//DTD SVG 1.1//EN" "http://www.w3.org/Graphics/SVG/1.1/DTD/svg11.dtd">
<svg version="1.1" id="Layer_1" xmlns="http://www.w3.org/2000/svg" xmlns:xlink="http://www.w3.org/1999/xlink" x="0px" y="0px"
	 viewBox="140.2 550.1 943.5 570.8" enable-background="new 140.2 550.1 943.5 570.8" xml:space="preserve">
<path fill="#020202" d="M748.6,835.5h-80.2c0,128,0,285.5,0,285.5H549.8c0,0,0-156,0-285.5h-56.2V734.8h56.2v-65.1
	c0-46.9,22.1-119.6,119.6-119.6l87.7,0.5v97.5c0,0-53.3,0-63.7,0s-25.3,5.1-25.3,27.2v59.4h90.4L748.6,835.5z"/>
<path fill="#010101" d="M1014.4,774.8v221.7c0,18.3-15.2,33.5-33.5,33.5l0,0c-18.2,0-33.5-15.2-33.5-33.5V774.8
	c0-18.2,15.2-33.5,33.5-33.5l0,0C999.2,742.2,1014.4,756.6,1014.4,774.8z"/>
<path fill="#010101" d="M944.3,712.4v333.1c0,18.3-15.2,33.5-33.5,33.5H885c-18.2,0-33.5-15.2-33.5-33.5V712.4
	c0-18.2,15.2-33.5,33.5-33.5h25.8C928.9,678.8,944.3,694.1,944.3,712.4z"/>
<path fill="#010101" d="M1083.7,844.2V928c0,18.2-15.2,33.5-33.5,33.5l0,0c-18.3,0-33.5-15.2-33.5-33.5v-83.8
	c0-18.2,15.2-33.5,33.5-33.5l0,0C1069.3,811.5,1083.7,826,1083.7,844.2z"/>
<path fill="#010101" d="M213.3,771.9v221.7c0,18.3,15.2,33.5,33.5,33.5h3.2c18.2,0,33.5-15.2,33.5-33.5V771.9
	c0-18.2-15.2-33.5-33.5-33.5h-3.2C228.5,739.1,213.3,753.6,213.3,771.9z"/>
<path fill="#010101" d="M287.2,709.3v333.1c0,18.2,15.2,33.5,33.5,33.5h30.6c18.2,0,33.5-15.2,33.5-33.5V709.3
	c0-18.2-15.2-33.5-33.5-33.5h-30.6C302.4,675.7,287.2,691.1,287.2,709.3z"/>
<path fill="#010101" d="M140.2,841.2V925c0,18.3,15.2,33.5,33.5,33.5h3.2c18.2,0,33.5-15.2,33.5-33.5v-83.8
	c0-18.2-15.2-33.5-33.5-33.5h-3.2C155.3,808.5,140.2,823,140.2,841.2z"/>
</svg>
