<?xml version="1.0" encoding="utf-8"?>
<!-- Generator: Adobe Illustrator 18.1.0, SVG Export Plug-In . SVG Version: 6.00 Build 0)  -->
<!DOCTYPE svg PUBLIC "-//W3C//DTD SVG 1.1//EN" "http://www.w3.org/Graphics/SVG/1.1/DTD/svg11.dtd">
<svg version="1.1" id="Layer_1" xmlns="http://www.w3.org/2000/svg" xmlns:xlink="http://www.w3.org/1999/xlink" x="0px" y="0px"
	 viewBox="150.5 232.5 340 313.1" enable-background="new 150.5 232.5 340 313.1" xml:space="preserve">
<rect x="150.5" y="232.5" fill="#020202" width="340" height="313.1"/>
<g>
	<g id="open">
		<path fill="#FFF100" d="M213.9,285.8h219.7c7.7,0,13.8,6.2,13.8,13.8v13.5c0,7.6-6.2,13.8-13.8,13.8H213.9
			c-7.6,0-13.8-6.2-13.8-13.8v-13.5C200.1,292,206.2,285.8,213.9,285.8z"/>
	</g>
	<g id="open_1_">
		<path fill="#FFF100" d="M214,368h219.5c7.7,0,13.9,6.2,13.9,13.9v13.3c0,7.6-6.2,13.9-13.9,13.9H214c-7.6,0-13.9-6.2-13.9-13.9
			v-13.3C200.1,374.2,206.3,368,214,368z"/>
	</g>
	<g id="open_2_">
		<path fill="#FFF100" d="M216.5,450.2h214.4c9,0,16.4,7.3,16.4,16.4v8.3c0,9-7.3,16.4-16.4,16.4H216.5c-9,0-16.4-7.3-16.4-16.4
			v-8.3C200.1,457.6,207.5,450.2,216.5,450.2z"/>
	</g>
</g>
</svg>
