<?xml version="1.0" encoding="utf-8"?>
<!-- Generator: Adobe Illustrator 18.1.0, SVG Export Plug-In . SVG Version: 6.00 Build 0)  -->
<!DOCTYPE svg PUBLIC "-//W3C//DTD SVG 1.1//EN" "http://www.w3.org/Graphics/SVG/1.1/DTD/svg11.dtd">
<svg version="1.1" id="Layer_1" xmlns="http://www.w3.org/2000/svg" xmlns:xlink="http://www.w3.org/1999/xlink" x="0px" y="0px"
	 viewBox="-6.5 595.8 1406.8 621.8" enable-background="new -6.5 595.8 1406.8 621.8" xml:space="preserve">
<path fill="#010101" d="M1034.3,751.3c0.6,6.9,0.6,13.3,0.6,20.2c0,206.9-157.7,446-446,446c-88.3,0-171-25.8-240.4-70.7
	c12,1.3,24.7,1.9,37.2,1.9c73.3,0,141.4-25.1,194.9-66.8c-68.7-1.3-126.1-46.6-146.3-109.1c9.5,1.9,19.6,2.6,29.6,2.6
	c14.6,0,28.4-1.9,41-5.6c-72-14.6-125.5-77.6-125.5-154c0-0.6,0-1.3,0-1.9c20.8,12,45.3,18.9,71.3,19.6c-42.3-28.4-70-76.3-70-130.6
	c0-29,7.5-55.4,21.5-78.8c77.6,94.5,193.1,157.1,323.1,164.1c-2.6-11.4-3.9-23.4-3.9-35.9c0-86.4,70-156.4,156.4-156.4
	c44.9,0,85.7,18.9,114.3,49.2c35.9-6.9,69.4-20.2,99.7-37.8c-12,36.5-36.5,67.5-68.8,86.4c31.6-3.9,61.9-12,90.2-24.7
	C1091.7,701.5,1065.2,729.2,1034.3,751.3z M1322,836.5v250.7c0,20.7-17.2,37.9-37.9,37.9l0,0c-20.6,0-37.9-17.2-37.9-37.9V836.5
	c0-20.6,17.2-37.9,37.9-37.9l0,0C1304.8,799.6,1322,815.9,1322,836.5z M1242.7,765.9v376.6c0,20.7-17.2,37.9-37.9,37.9h-29.2
	c-20.6,0-37.9-17.2-37.9-37.9V765.9c0-20.6,17.2-37.9,37.9-37.9h29.2C1225.3,727.9,1242.7,745.2,1242.7,765.9z M1400.3,914.9v94.8
	c0,20.6-17.2,37.9-37.9,37.9l0,0c-20.7,0-37.9-17.2-37.9-37.9v-94.8c0-20.6,17.2-37.9,37.9-37.9l0,0
	C1384.1,878,1400.3,894.4,1400.3,914.9z M76.2,841v250.7c0,20.7,17.2,37.9,37.9,37.9h3.6c20.6,0,37.9-17.2,37.9-37.9V841
	c0-20.6-17.2-37.9-37.9-37.9h-3.6C93.4,804,76.2,820.3,76.2,841z M159.7,770.3v376.6c0,20.6,17.2,37.9,37.9,37.9h34.6
	c20.6,0,37.9-17.2,37.9-37.9V770.3c0-20.6-17.2-37.9-37.9-37.9h-34.6C176.9,732.3,159.7,749.7,159.7,770.3z M-6.5,919.4v94.8
	c0,20.7,17.2,37.9,37.9,37.9h3.6c20.6,0,37.9-17.2,37.9-37.9v-94.8c0-20.6-17.2-37.9-37.9-37.9h-3.6C10.6,882.4-6.5,898.8-6.5,919.4
	z"/>
</svg>
